<svg width="12" height="14" viewBox="0 0 12 14" fill="none" xmlns="http://www.w3.org/2000/svg">
<path d="M0.528809 13.3984V11.8604L1.89111 11.5967V2.41211L0.528809 2.14844V0.601562H6.21533C7.72119 0.601562 8.896 0.894531 9.73975 1.48047C10.5835 2.06641 11.0054 2.94238 11.0054 4.1084C11.0054 4.7002 10.8472 5.23047 10.5308 5.69922C10.2202 6.16211 9.76611 6.51074 9.16846 6.74512C9.93604 6.90918 10.5103 7.26074 10.8911 7.7998C11.2778 8.33887 11.4712 8.96289 11.4712 9.67188C11.4712 10.8965 11.0669 11.8252 10.2583 12.458C9.44971 13.085 8.3042 13.3984 6.82178 13.3984H0.528809ZM4.45752 5.96289H6.30322C6.98877 5.96289 7.51611 5.82227 7.88525 5.54102C8.25439 5.25977 8.43896 4.84961 8.43896 4.31055C8.43896 3.15625 7.69775 2.5791 6.21533 2.5791H4.45752V5.96289ZM4.45752 11.4297H6.82178C8.21631 11.4297 8.91357 10.8438 8.91357 9.67188C8.91357 9.04492 8.76123 8.56738 8.45654 8.23926C8.15186 7.90527 7.67139 7.73828 7.01514 7.73828H4.45752V11.4297Z" fill="white"/>
</svg>
