<svg width="8" height="16" viewBox="0 0 8 16" fill="none" xmlns="http://www.w3.org/2000/svg">
<path fill-rule="evenodd" clip-rule="evenodd" d="M4.28648 3.04055L4.30118 3.05526L4.31706 3.06869C4.5999 3.30802 4.94238 3.418 5.31203 3.418C5.81036 3.418 6.25949 3.23194 6.64684 2.89741L6.65637 2.88897C7.0521 2.52921 7.28203 2.07873 7.28203 1.553C7.28203 1.17037 7.13858 0.829551 6.84781 0.575886C6.57667 0.312647 6.23247 0.191999 5.85803 0.191999C5.3538 0.191999 4.90322 0.389621 4.51835 0.737804C4.11792 1.08562 3.88803 1.53164 3.88803 2.057C3.88803 2.43268 4.01858 2.77265 4.28648 3.04055Z" fill="white"/>
<path fill-rule="evenodd" clip-rule="evenodd" d="M4.04748 13.4817L5.75387 6.65621C5.80221 6.4777 5.83303 6.30016 5.83303 6.131C5.83303 5.72584 5.70286 5.35093 5.39917 5.0706C5.10799 4.80181 4.74079 4.686 4.34603 4.686C3.76103 4.686 3.15317 4.93032 2.53804 5.33541C1.91988 5.74249 1.31369 6.28472 0.717773 6.95331L1.36666 7.70317C2.05979 7.2452 2.56244 7.04744 2.90128 7.01416L1.21739 13.8329C1.16592 14.0081 1.13703 14.1855 1.13703 14.363C1.13703 14.7682 1.2672 15.1431 1.57089 15.4234C1.86207 15.6922 2.22927 15.808 2.62403 15.808C3.20904 15.808 3.81689 15.5637 4.43202 15.1586C5.05018 14.7515 5.65637 14.2093 6.25229 13.5407L5.6034 12.7908C4.8956 13.2585 4.38643 13.4548 4.04748 13.4817Z" fill="white"/>
</svg>
